<svg fill="#000000" xmlns="http://www.w3.org/2000/svg"  viewBox="0 0 26 26" width="600px" height="600px"><path d="M18.399 4L12 0 12 8zM7.6 22L14 26 14 18z"/><path d="M7.955 18.084C6.646 16.785 5.836 14.988 5.836 13c0-3.955 3.209-7.164 7.164-7.164.075 0 .148.009.223.011l.115-1.646.514-1.971C13.57 2.208 13.287 2.188 13 2.188 7.029 2.188 2.188 7.029 2.188 13c0 2.935 1.174 5.593 3.072 7.541L7.955 18.084zM20.741 5.461l-2.694 2.457c1.307 1.299 2.117 3.096 2.117 5.082 0 3.902-3.125 7.072-7.008 7.156l-.021 1.304-.813 2.318c.225.014.449.034.678.034 5.971 0 10.813-4.842 10.813-10.813C23.813 10.066 22.639 7.409 20.741 5.461z"/></svg>